<svg xmlns="http://www.w3.org/2000/svg" xmlns:xlink="http://www.w3.org/1999/xlink" xml:space="preserve" width="100px" height="81px" style="shape-rendering:geometricPrecision; text-rendering:geometricPrecision; image-rendering:optimizeQuality; fill-rule:evenodd; clip-rule:evenodd" viewBox="0 0 99.9988 81.4865">
 <defs>
  <style type="text/css">
   
    .fil0 {fill:#ffffff}
   
  </style>
 </defs>
 <g id="Layer_x0020_1">
  <metadata id="CorelCorpID_0Corel-Layer"/>
  <path class="fil0" d="M76.7586 25.8303l6.66131 -11.2439 9.81244 -4.70662 0.582274 8.54987 6.18415 6.24203 -10.1361 5.06094 -11.7695 -2.42004 -19.0438 9.26796c-0.170076,0.594085 -0.662588,1.18108 -1.37006,1.56139 -0.329522,0.426371 -0.79605,0.807861 -1.36533,1.08069 -0.0885813,0.0413379 -0.177163,0.0803137 -0.265744,0.114565 -0.320074,0.314168 -0.712194,0.592904 -1.16455,0.809042 -0.270468,0.129919 -0.545661,0.22913 -0.818491,0.299995 -0.382671,0.419285 -0.876364,0.792507 -1.45864,1.07124 -0.633061,0.302357 -1.28502,0.455898 -1.89328,0.471252 -0.274011,0.232674 -0.590542,0.439363 -0.943686,0.608258 -0.651958,0.311806 -1.32636,0.447631 -1.93816,0.42519 -0.302357,0.312987 -0.683847,0.591723 -1.12675,0.803137 -0.718099,0.344876 -1.46809,0.453536 -2.1106,0.353144 -0.253933,0.27283 -0.579912,0.514953 -0.961402,0.698021 -0.356687,0.170076 -0.722823,0.270468 -1.07242,0.305901 6.27037,11.975 10.9416,24.4449 13.684,35.1821l36.8699 0 0 1.12203 -91.86 0 -1.25431 0 0 -1.12203c0,-23.239 0,-46.4768 0,-69.7158l0 -6.40502 0.0295271 0 0.0200784 -4.24363c16.7147,6.76761 30.8133,23.7776 41.0344,42.4257 0.262201,-0.296452 0.605896,-0.558653 1.01337,-0.754713 0.38149,-0.181887 0.77361,-0.284641 1.14683,-0.311806 0.323617,-0.563377 0.878726,-1.07951 1.59683,-1.42321 0.442906,-0.212595 0.897624,-0.335428 1.33226,-0.374404 0.366136,-0.491331 0.89408,-0.931875 1.54604,-1.24486 0.353144,-0.168895 0.712194,-0.285822 1.06534,-0.354325 0.393301,-0.464166 0.921245,-0.876364 1.55313,-1.1799 0.583455,-0.278736 1.18226,-0.429914 1.74919,-0.465347 0.225587,-0.167714 0.475977,-0.320074 0.746445,-0.449993 0.452355,-0.217319 0.91534,-0.34842 1.36061,-0.401568 0.0826759,-0.0460623 0.167714,-0.0909434 0.256295,-0.133462 0.569282,-0.27283 1.15864,-0.398025 1.69722,-0.387395 0.74054,-0.312987 1.50588,-0.329522 2.07516,-0.0897624l18.5359 -9.02466zm-51.1905 14.5675c1.96769,0 4.98654,2.88066 7.3617,6.8184 -1.02518,0.571645 -2.04918,1.14329 -3.07318,1.71375 -0.302357,0.203146 0.198422,1.14683 0.496055,1.03463l3.34129 -1.40195c0.222044,0.416923 0.43582,0.842113 0.640147,1.27439 2.45665,5.2133 2.51689,9.4404 0.133462,9.4404 -2.38461,0 -6.30817,-4.2271 -8.766,-9.4404 -2.45665,-5.21212 -2.51689,-9.43922 -0.133462,-9.43922zm7.36406 6.82194l0.0484244 0.0814948 2.73421 -1.50706c-5.1259,-8.95143 -11.9313,-15.647 -16.2966,-15.647 -5.04677,0 -4.92039,8.94789 0.282279,19.9851 5.20267,11.0372 13.5104,19.9851 18.5572,19.9851 5.04677,0 4.92039,-8.94789 -0.282279,-19.9851 -0.460623,-0.977937 -0.946048,-1.93934 -1.45155,-2.87948l-2.87948 1.2177 0.0437001 0.0826759 -0.0460623 -0.0814948 -3.25389 1.37596c-0.22913,0.0720461 -0.683847,-0.738177 -0.403931,-0.89408l2.99405 -1.65116 -0.0460623 -0.0826759zm7.28729 -1.61808l-0.770067 0.368498c0.778334,1.37242 1.52596,2.772 2.23815,4.19521 7.66405,15.3281 8.52979,28.0177 2.47909,30.1991l8.59711 0c-2.04918,-12.3411 -6.72273,-24.3008 -12.5443,-34.7628zm-1.73265 -1.29092l0.786602 -0.376766c-12.4982,-21.6611 -29.735,-36.4211 -38.0191,-33.844l0 33.3302c6.33297,15.3895 14.512,27.3185 23.9193,36.9443l14.6159 0c-8.23097,-2.18146 -20.0548,-14.871 -27.7189,-30.1991 -8.43058,-16.8623 -8.63608,-30.531 -0.457079,-30.531 7.20697,0 18.5182,10.6156 26.8732,24.6764zm-37.2325 36.0538l9.27741 0c-3.44758,-3.05901 -6.51013,-7.20934 -9.27741,-12.5809l0 12.5809zm76.9311 -57.879l4.45032 -9.53371 9.09789 -6.20305 0.268106 3.05664 -8.80734 4.22474 -5.00898 8.45538zm16.1159 -5.01724l4.21765 4.11371 -0.455898 0.321255 -3.71569 -3.74994 -0.0460623 -0.685029z"/>
 </g>
</svg>