<svg xmlns="http://www.w3.org/2000/svg" xmlns:xlink="http://www.w3.org/1999/xlink" version="1.1" id="Layer_1" x="0px" y="0px" width="100px" height="100px" viewBox="0 0 100 100" enable-background="new 0 0 100 100" xml:space="preserve" fill="#FFFFFF">
<path d="M79.086,36.844c-5.219-12.133-17.232-20.135-30.582-20.135c-17,0-31.24,13.036-33.081,29.636C6.675,47.86,0,55.506,0,64.681  c0,10.261,8.348,18.61,18.609,18.61h29.738c1.875,0,3.396-1.52,3.396-3.396V54.678l5.336,5.336c0.663,0.663,1.532,0.995,2.401,0.995  c0.869-0.001,1.738-0.332,2.401-0.995c1.326-1.326,1.326-3.476,0-4.802L50.748,44.079c-0.637-0.637-1.501-0.995-2.401-0.995  c-0.901,0-1.764,0.358-2.401,0.995L34.813,55.212c-1.326,1.326-1.326,3.476,0,4.802c1.326,1.326,3.476,1.326,4.802,0l5.336-5.336  v21.821H18.609c-6.516,0-11.818-5.301-11.818-11.818c0-6.473,5.231-11.747,11.688-11.817c0.767,0.028,1.54-0.2,2.173-0.671  c0.843-0.628,1.347-1.612,1.366-2.663C22.268,35.177,34.15,23.5,48.504,23.5c11.191,0,21.202,7.064,24.959,17.594  c0.418,1.4,1.717,2.422,3.254,2.422c9.093,0,16.492,7.398,16.492,16.491s-7.398,16.491-16.492,16.491  c-1.875,0-3.396,1.52-3.396,3.396s1.52,3.396,3.396,3.396C89.555,83.291,100,72.846,100,60.008  C100,47.97,90.815,38.036,79.086,36.844z"/>
</svg>