<svg xmlns="http://www.w3.org/2000/svg" xmlns:xlink="http://www.w3.org/1999/xlink" version="1.1" id="Layer_1" x="0px" y="0px" width="100px" height="100px" viewBox="0 0 100 100" enable-background="new 0 0 100 100" xml:space="preserve" fill="#FFFFFF">
<path id="db_x2B_" d="M64.352,56.964c-9.878,0-17.895,8.015-17.895,17.894c0,9.878,8.017,17.893,17.895,17.893  c9.875,0,17.893-8.015,17.893-17.893C82.244,64.979,74.229,56.964,64.352,56.964z M76.28,79.33h-7.455v7.456h-8.947V79.33h-7.455  v-8.946h7.455v-7.455h8.947v7.455h7.455V79.33z M46.457,49.333c13.829,0,28.705-4.661,28.705-14.905V22.869  c0-10.244-14.876-14.914-28.705-14.914c-13.829,0-28.7,4.667-28.7,14.914v11.559C17.757,44.672,32.631,49.333,46.457,49.333z   M46.457,13.92c12.56,0,22.74,4.009,22.74,8.946c0,4.945-10.181,8.946-22.74,8.946c-12.558,0-22.739-4.004-22.739-8.946  C23.721,17.932,33.902,13.92,46.457,13.92z M43.475,74.857c0-0.094,0.012-0.187,0.015-0.28c-10.446-0.466-20.494-3.378-25.468-9.202  c-0.16,0.705-0.268,1.427-0.268,2.201v11.562c0,10.252,14.875,14.905,28.703,14.905c2.812,0,5.66-0.204,8.43-0.6  C48.119,89.995,43.475,82.982,43.475,74.857z M43.749,71.631c1.557-9.995,10.171-17.648,20.603-17.648  c3.955,0,7.639,1.118,10.787,3.034c0-0.072,0.023-0.151,0.023-0.228V45.232c0-0.766-0.111-1.494-0.269-2.197  c-5.445,6.354-16.964,9.299-28.439,9.299c-11.473,0-22.986-2.944-28.429-9.296c-0.16,0.703-0.271,1.428-0.271,2.194v11.557  C17.757,66.359,30.756,71.065,43.749,71.631z"/>
</svg>