<?xml version="1.0" encoding="UTF-8" standalone="no"?>
<!-- Created with Inkscape (http://www.inkscape.org/) -->

<svg
   xmlns:dc="http://purl.org/dc/elements/1.1/"
   xmlns:cc="http://creativecommons.org/ns#"
   xmlns:rdf="http://www.w3.org/1999/02/22-rdf-syntax-ns#"
   xmlns:svg="http://www.w3.org/2000/svg"
   xmlns="http://www.w3.org/2000/svg"
   xmlns:sodipodi="http://sodipodi.sourceforge.net/DTD/sodipodi-0.dtd"
   xmlns:inkscape="http://www.inkscape.org/namespaces/inkscape"
   width="96.679001"
   height="96.480988"
   id="svg2"
   version="1.1"
   inkscape:version="0.48.4 r9939"
   sodipodi:docname="extension.svg">
  <sodipodi:namedview
     id="base"
     pagecolor="#ffffff"
     bordercolor="#666666"
     borderopacity="1.0"
     inkscape:pageopacity="0.0"
     inkscape:pageshadow="2"
     inkscape:zoom="3.7727945"
     inkscape:cx="38.641976"
     inkscape:cy="56.64348"
     inkscape:document-units="px"
     inkscape:current-layer="layer1"
     showgrid="false"
     inkscape:window-width="1600"
     inkscape:window-height="876"
     inkscape:window-x="0"
     inkscape:window-y="24"
     inkscape:window-maximized="1"
     fit-margin-top="0"
     fit-margin-left="0"
     fit-margin-right="0"
     fit-margin-bottom="0" />
  <defs
     id="defs4" />
  <metadata
     id="metadata7">
    <rdf:RDF>
      <cc:Work
         rdf:about="">
        <dc:format>image/svg+xml</dc:format>
        <dc:type
           rdf:resource="http://purl.org/dc/dcmitype/StillImage" />
        <dc:title></dc:title>
      </cc:Work>
    </rdf:RDF>
  </metadata>
  <g
     id="layer1"
     inkscape:groupmode="layer"
     inkscape:label="Laag 1"
     transform="translate(-143.61222,-957.51885)">
    <g
       id="g4342"
       transform="translate(12.084874,-12.060119)">
      <path
         inkscape:connector-curvature="0"
         id="path4340"
         d="m 178.424,1053.9288 c -0.39363,-0.075 -0.69777,-0.2327 -0.67588,-0.351 0.0219,-0.1183 3.75979,-6.5627 8.30645,-14.3207 4.54666,-7.7581 8.46848,-14.5597 8.71517,-15.1146 1.26247,-2.8398 1.60241,-7.0501 0.82953,-10.2741 -0.76075,-3.1733 -2.80532,-6.5192 -5.12655,-8.3896 -0.65055,-0.5242 -1.18919,-1.0682 -1.19697,-1.2087 -0.0112,-0.2018 2.52645,-0.2556 12.04506,-0.2556 l 12.05921,0 0.28873,0.5623 c 0.47909,0.9331 1.28861,3.7037 1.74756,5.9811 1.89411,9.3987 -0.0691,19.3408 -5.38902,27.2912 -5.8179,8.6946 -14.93897,14.394 -25.33368,15.83 -2.0178,0.2787 -5.40572,0.4136 -6.26961,0.2497 z"
         style="fill:#ffffff;stroke:none" />
      <path
         inkscape:connector-curvature="0"
         id="path4338"
         d="m 171.36935,1053.0014 c -13.53382,-3.1684 -24.35622,-14.3963 -27.08058,-28.0952 -1.22742,-6.1719 -0.76714,-13.2421 1.23779,-19.0131 0.76021,-2.1882 3.08869,-6.98811 3.62579,-7.47418 0.37964,-0.34357 0.41099,-0.33505 0.79487,0.21626 0,0 3.59431,6.07912 7.49892,12.80772 9.2998,16.0258 8.97597,15.4863 10.12733,16.8699 1.95097,2.3443 5.611,4.5331 8.74384,5.2292 2.89086,0.6422 7.1454,0.2978 9.72367,-0.7872 0.58303,-0.2454 0.76578,-0.2608 0.76249,-0.064 -0.002,0.142 -2.70475,4.8592 -6.00527,10.4824 -6.923,11.7951 -5.84202,10.6683 -9.42885,9.8286 z"
         style="fill:#ffffff;stroke:none" />
      <path
         inkscape:connector-curvature="0"
         id="path4336"
         d="m 177.9128,1031.0819 c -5.17945,-0.8041 -9.51974,-4.6429 -11.06712,-9.7887 -0.50994,-1.6957 -0.50994,-5.4611 0,-7.1569 1.3766,-4.5777 4.85349,-8.0546 9.43126,-9.4312 1.69574,-0.5099 5.46115,-0.5099 7.15689,0 4.57777,1.3766 8.05466,4.8535 9.43126,9.4312 0.50994,1.6958 0.50994,5.4612 0,7.1569 -1.36465,4.538 -4.86899,8.0669 -9.32902,9.3944 -1.13113,0.3366 -4.48136,0.5715 -5.62327,0.3943 z"
         style="fill:#ffffff;stroke:none" />
      <path
         inkscape:connector-curvature="0"
         id="path3364"
         d="m 157.28061,1006.0672 c -3.32903,-5.7307 -6.05279,-10.49571 -6.05279,-10.58891 0,-0.0932 0.66712,-0.91713 1.4825,-1.83096 5.21309,-5.84252 11.81298,-9.6924 19.61751,-11.44337 2.37548,-0.53295 2.80079,-0.56486 7.52756,-0.56486 4.72676,0 5.15207,0.032 7.52754,0.56486 7.79534,1.7489 14.39469,5.59905 19.62751,11.45093 2.3048,2.57747 5.35136,7.21521 5.05485,7.69501 -0.0878,0.142 -5.7157,0.2112 -17.24362,0.2122 -16.19477,0 -17.20116,0.023 -18.74922,0.3956 -2.01349,0.4852 -3.26208,1.0256 -5.09559,2.2053 -3.62721,2.3339 -6.34837,6.4235 -7.08442,10.6471 -0.14298,0.8205 -0.32726,1.5333 -0.4095,1.5841 -0.0823,0.051 -2.87329,-4.5963 -6.20233,-10.327 z"
         style="fill:#ffffff;stroke:none" />
    </g>
  </g>
</svg>
