<?xml version="1.0" encoding="UTF-8" standalone="no"?>
<!-- Generator: Adobe Illustrator 15.1.0, SVG Export Plug-In . SVG Version: 6.00 Build 0)  -->

<svg
   xmlns:dc="http://purl.org/dc/elements/1.1/"
   xmlns:cc="http://creativecommons.org/ns#"
   xmlns:rdf="http://www.w3.org/1999/02/22-rdf-syntax-ns#"
   xmlns:svg="http://www.w3.org/2000/svg"
   xmlns="http://www.w3.org/2000/svg"
   xmlns:sodipodi="http://sodipodi.sourceforge.net/DTD/sodipodi-0.dtd"
   xmlns:inkscape="http://www.inkscape.org/namespaces/inkscape"
   version="1.1"
   id="Layer_1"
   x="0px"
   y="0px"
   width="51.856px"
   height="100px"
   viewBox="0 0 51.856 100"
   enable-background="new 0 100 100 100"
   fill="#ffffff"
   xml:space="preserve"
   inkscape:version="0.48.4 r9939"
   sodipodi:docname="noun_project_337.svg"><metadata
     id="metadata21"><rdf:RDF><cc:Work
         rdf:about=""><dc:format>image/svg+xml</dc:format><dc:type
           rdf:resource="http://purl.org/dc/dcmitype/StillImage" /><dc:title></dc:title></cc:Work></rdf:RDF></metadata><defs
     id="defs19" /><sodipodi:namedview
     pagecolor="#ffffff"
     bordercolor="#666666"
     borderopacity="1"
     objecttolerance="10"
     gridtolerance="10"
     guidetolerance="10"
     inkscape:pageopacity="0"
     inkscape:pageshadow="2"
     inkscape:window-width="1600"
     inkscape:window-height="876"
     id="namedview17"
     showgrid="false"
     inkscape:zoom="3.337544"
     inkscape:cx="105.82416"
     inkscape:cy="50.089226"
     inkscape:window-x="0"
     inkscape:window-y="24"
     inkscape:window-maximized="1"
     inkscape:current-layer="Layer_1" /><circle
     cx="33.407001"
     cy="2.5020001"
     r="2.5"
     id="circle3"
     sodipodi:cx="33.407001"
     sodipodi:cy="2.5020001"
     sodipodi:rx="2.5"
     sodipodi:ry="2.5"
     transform="translate(-10.486753,5.8426197)" /><circle
     cx="34.407001"
     cy="11.501"
     r="2.5"
     id="circle5"
     sodipodi:cx="34.407001"
     sodipodi:cy="11.501"
     sodipodi:rx="2.5"
     sodipodi:ry="2.5"
     transform="translate(-2.5467829,8.0897811)" /><circle
     cx="19.907"
     cy="20.000999"
     r="3"
     id="circle7"
     sodipodi:cx="19.907"
     sodipodi:cy="20.000999"
     sodipodi:rx="3"
     sodipodi:ry="3"
     transform="translate(3.4456475,5.8426197)" /><path
     style="fill:#ffffff"
     d="M 16.188594,73.893784 8.597,92.002 l 34.662,0 -7.739405,-18.108216 z"
     id="polygon13"
     inkscape:connector-curvature="0"
     sodipodi:nodetypes="ccccc" /><path
     d="M50.742,89.162L35.927,54.594V32.476l1.229-2.475h-4.463l-0.766,1.532v23.881l15.21,35.482  c0.785,1.569,0.943,3.008,0.425,3.848c-0.502,0.811-1.793,1.258-3.636,1.258H25.929h-0.001H7.93c-1.842,0-3.133-0.447-3.635-1.258  c-0.519-0.84-0.36-2.278,0.425-3.848l15.21-35.482V31.533l-0.765-1.532h-4.463l1.229,2.475v22.118L1.114,89.162  c-1.403,2.842-1.485,5.64-0.222,7.685c0.89,1.439,2.833,3.155,7.038,3.155h17.998h0.001h17.997c4.205,0,6.148-1.716,7.038-3.155  C52.228,94.802,52.146,92.004,50.742,89.162z"
     id="path15" /></svg>