<?xml version="1.0" encoding="UTF-8" standalone="no"?>
<svg
   xmlns:dc="http://purl.org/dc/elements/1.1/"
   xmlns:cc="http://creativecommons.org/ns#"
   xmlns:rdf="http://www.w3.org/1999/02/22-rdf-syntax-ns#"
   xmlns:svg="http://www.w3.org/2000/svg"
   xmlns="http://www.w3.org/2000/svg"
   xmlns:sodipodi="http://sodipodi.sourceforge.net/DTD/sodipodi-0.dtd"
   xmlns:inkscape="http://www.inkscape.org/namespaces/inkscape"
   version="1.1"
   id="Layer_1"
   x="0px"
   y="0px"
   width="90.412987"
   height="93.036896"
   viewBox="0 0 90.412987 93.036896"
   enable-background="new 0 0 100 100"
   xml:space="preserve"
   inkscape:version="0.48.4 r9939"
   sodipodi:docname="process.svg"
   style="fill:#ffffff"><metadata
     id="metadata19"><rdf:RDF><cc:Work
         rdf:about=""><dc:format>image/svg+xml</dc:format><dc:type
           rdf:resource="http://purl.org/dc/dcmitype/StillImage" /></cc:Work></rdf:RDF></metadata><defs
     id="defs17" /><sodipodi:namedview
     pagecolor="#ffffff"
     bordercolor="#666666"
     borderopacity="1"
     objecttolerance="10"
     gridtolerance="10"
     guidetolerance="10"
     inkscape:pageopacity="0"
     inkscape:pageshadow="2"
     inkscape:window-width="1600"
     inkscape:window-height="876"
     id="namedview15"
     showgrid="false"
     fit-margin-top="0"
     fit-margin-left="0"
     fit-margin-right="0"
     fit-margin-bottom="0"
     inkscape:zoom="2.36"
     inkscape:cx="-12.78022"
     inkscape:cy="45.703002"
     inkscape:window-x="0"
     inkscape:window-y="24"
     inkscape:window-maximized="1"
     inkscape:current-layer="Layer_1" /><g
     id="g3"
     style="fill:#ffffff"
     transform="matrix(0.84166595,0,0,0.92510613,2.6799249,-0.15038103)"><ellipse
       cx="40.991001"
       cy="15.187"
       rx="38.750999"
       ry="9.9960003"
       id="ellipse5"
       style="fill:#ffffff"
       sodipodi:cx="40.991001"
       sodipodi:cy="15.187"
       sodipodi:rx="38.750999"
       sodipodi:ry="9.9960003"
       d="m 79.742001,15.187 c 0,5.520639 -17.349414,9.996001 -38.751,9.996001 -21.401586,0 -38.7509993,-4.475362 -38.7509993,-9.996001 0,-5.5206382 17.3494133,-9.996 38.7509993,-9.996 21.401586,0 38.751,4.4753618 38.751,9.996 z" /><path
       d="m 40.872,48.739 c 4.664,0 7.864,-0.078 8.702,-0.197 0.28,-3.234 1.956,-9.222 7.306,-13.494 2.795,-2.036 7.386,-5.589 16.009,-4.71 0.851,0.214 3.792,0.439 6.786,2.076 0,-0.719 0.067,-11.977 0.067,-11.977 0,0 -0.119,10.768 -38.751,10.768 -38.631,0 -38.75,-10.768 -38.75,-10.768 v 14.404 c 0,0 0,13.898 38.631,13.898 z"
       id="path7"
       style="fill:#ffffff"
       inkscape:connector-curvature="0" /><path
       d="m 40.872,72.285 c 14.442,0 16.034,-0.629 21.038,-2.226 -4.032,-2.036 -6.388,-4.232 -9.182,-7.825 -1.518,-2.515 -2.396,-4.352 -3.194,-8.902 -1.637,0.199 -3.9,0.225 -8.543,0.225 -38.631,0 -38.75,-12.68 -38.75,-12.68 v 16.606 c 0,-10e-4 0,14.802 38.631,14.802 z"
       id="path9"
       style="fill:#ffffff"
       inkscape:connector-curvature="0" /><path
       d="M 68.537,71.616 C 68.012,71.8 64.468,76.757 40.991,76.757 2.36,76.757 2.187,63.393 2.187,63.393 L 2.24,80.74 c 0,0 0,14.965 38.631,14.963 38.631,0 38.87,-14.775 38.87,-14.775 0,0 0.013,-10.838 0.013,-11.506 -3.991,1.915 -7.544,2.474 -11.217,2.194 z"
       id="path11"
       style="fill:#ffffff"
       inkscape:connector-curvature="0" /><path
       d="m 98.034,73.404 -7.536,-7.878 -7.349,-3.202 c 2.661,-3.057 4.078,-6.808 4.163,-10.658 0.09,-4.229 -1.448,-8.489 -4.636,-11.821 -3.12,-3.255 -7.309,-4.905 -11.609,-4.999 -8.893,-0.193 -16.62,7.204 -16.812,16.1 -0.197,8.968 7.049,16.688 16.023,16.883 3.853,0.084 7.732,-1.161 10.904,-3.689 l 2.875,7.55 7.543,7.806 c 0.725,0.607 1.683,0.925 2.645,0.946 2.374,0.051 4.567,-1.904 4.62,-4.35 0.023,-0.964 -0.255,-1.86 -0.831,-2.688 z M 77.812,58.646 c -2.042,1.96 -4.659,2.864 -7.327,2.806 -5.409,-0.117 -9.98,-4.814 -9.857,-10.37 0.117,-5.415 4.817,-9.982 10.3,-9.864 5.635,0.125 10.132,4.819 10.01,10.307 -0.055,2.594 -1.151,5.163 -3.126,7.121 z"
       id="path13"
       style="fill:#ffffff"
       inkscape:connector-curvature="0" /></g></svg>