<?xml version="1.0" encoding="UTF-8" standalone="no"?>
<!-- Created with Inkscape (http://www.inkscape.org/) -->

<svg
   xmlns:dc="http://purl.org/dc/elements/1.1/"
   xmlns:cc="http://creativecommons.org/ns#"
   xmlns:rdf="http://www.w3.org/1999/02/22-rdf-syntax-ns#"
   xmlns:svg="http://www.w3.org/2000/svg"
   xmlns="http://www.w3.org/2000/svg"
   xmlns:sodipodi="http://sodipodi.sourceforge.net/DTD/sodipodi-0.dtd"
   xmlns:inkscape="http://www.inkscape.org/namespaces/inkscape"
   width="3200"
   height="5637.1963"
   id="svg2"
   version="1.1"
   inkscape:version="0.48.4 r9939"
   sodipodi:docname="phone.svg">
  <defs
     id="defs4" />
  <sodipodi:namedview
     id="base"
     pagecolor="#ffffff"
     bordercolor="#666666"
     borderopacity="1.0"
     inkscape:pageopacity="0.0"
     inkscape:pageshadow="2"
     inkscape:zoom="0.4559375"
     inkscape:cx="1600"
     inkscape:cy="2412.1089"
     inkscape:document-units="px"
     inkscape:current-layer="layer1"
     showgrid="false"
     fit-margin-top="0"
     fit-margin-left="0"
     fit-margin-right="0"
     fit-margin-bottom="0"
     inkscape:window-width="1600"
     inkscape:window-height="876"
     inkscape:window-x="0"
     inkscape:window-y="24"
     inkscape:window-maximized="1" />
  <metadata
     id="metadata7">
    <rdf:RDF>
      <cc:Work
         rdf:about="">
        <dc:format>image/svg+xml</dc:format>
        <dc:type
           rdf:resource="http://purl.org/dc/dcmitype/StillImage" />
        <dc:title></dc:title>
      </cc:Work>
    </rdf:RDF>
  </metadata>
  <g
     inkscape:label="Laag 1"
     inkscape:groupmode="layer"
     id="layer1"
     transform="translate(1808.5714,2403.2808)">
    <path
       style="fill:#000000"
       d="m -1732.7298,3232.7409 c -18.4787,-3.3561 -33.9058,-11.2666 -47.7031,-24.4604 -12.4174,-11.8741 -21.3973,-27.1612 -25.8826,-44.0613 l -2.2559,-8.5 0,-2740.5 0,-2740.5 2.2559,-8.5 c 2.7168,-10.2368 8.7505,-23.1613 14.6721,-31.4284 5.019,-7.007 15.9378,-17.74 22.8126,-22.4245 7.4205,-5.0563 20.4561,-10.9221 29.7594,-13.3912 l 8.5,-2.2559 1522,0 1522,0 8.5,2.2559 c 9.3033,2.4691 22.3389,8.3349 29.7594,13.3912 6.8748,4.6845 17.7936,15.4175 22.8126,22.4245 5.9216,8.2671 11.9553,21.1916 14.6721,31.4284 l 2.2559,8.5 0,2740.5 0,2740.5 -2.2559,8.5 c -2.4691,9.3033 -8.3349,22.3389 -13.3912,29.7594 -4.6845,6.8748 -15.4175,17.7936 -22.4245,22.8126 -7.928,5.6786 -20.9208,11.8405 -30.9284,14.6678 l -8,2.2602 -1520,0.1609 c -1243.4578,0.1316 -1521.3024,-0.076 -1527.1584,-1.1392 z m 1556.6584,-276.5536 c 124.1102,-11.0624 222.6217,-105.5979 239.6403,-229.9681 2.3325,-17.0453 2.3325,-50.9547 0,-68 -7.9947,-58.4241 -32.5029,-109.1939 -72.5871,-150.3671 -42.0671,-43.21 -92.0711,-68.7957 -153.0532,-78.3131 -14.2463,-2.2234 -58.7829,-2.5398 -71.5,-0.5079 -44.0796,7.0428 -77.2773,19.2534 -109.7105,40.3532 -64.0771,41.6861 -106.2686,106.8775 -118.3297,182.8349 -2.219,13.9751 -3.0667,51.2109 -1.5186,66.7061 6.0548,60.6014 32.969,117.3757 76.0029,160.3252 22.0943,22.0509 42.744,36.8489 70.5559,50.5614 30.8631,15.217 59.7015,23.1296 97.5,26.7518 8.1769,0.7836 32.3611,0.5719 43,-0.3764 z m -760.5,-108.4627 c 59.28379,-10.2483 108.49983,-52.3649 127.38002,-109.0054 6.05758,-18.1728 7.49378,-27.8615 7.55998,-51 0.052,-18.0511 -0.2596,-22.5766 -2.2159,-32.2278 -13.21312,-65.1831 -61.79734,-114.1465 -127.47507,-128.4699 -8.91235,-1.9437 -13.18349,-2.2352 -32.74903,-2.2352 -19.505,0 -23.85078,0.2948 -32.64776,2.2146 -24.53994,5.3553 -50.44404,17.4427 -68.85224,32.1281 -7.3134,5.8343 -21.6396,20.4902 -27.4787,28.1112 -28.93,37.7581 -40.0127,85.6985 -30.5805,132.2823 3.2492,16.0475 7.2336,27.2519 15.1834,42.6967 24.8835,48.3436 72.0976,80.6858 126.96529,86.9726 10.58622,1.213 33.79173,0.4549 44.91051,-1.4672 z m 1527,-4.4614 c 22.0223,-4.7695 43.7038,-14.2249 61.5,-26.8203 12.1548,-8.6027 29.608,-26.053 38.23,-38.2237 12.576,-17.7521 22.0757,-39.6258 26.9264,-62 1.9949,-9.2014 2.274,-13.2828 2.2564,-33 -0.022,-25.132 -1.1154,-32.3925 -7.9518,-52.8229 -15.4934,-46.3013 -54.887,-85.6268 -101.3782,-101.2028 -42.1837,-14.1328 -87.8683,-10.8413 -127.0176,9.1515 -59.1635,30.2136 -94.4619,94.0856 -88.1441,159.4953 3.9076,40.456 18.9319,72.3812 47.5066,100.9471 14.1971,14.1927 25.0783,22.1547 41.6268,30.4591 12.1475,6.096 27.3572,11.4147 39.7977,13.9172 14.0311,2.8223 14.7628,2.8733 36.6478,2.5556 15.9584,-0.2316 22.0208,-0.728 30,-2.4561 z m 554.5791,-603.7094 c 17.0689,-4.8766 30.3675,-12.3917 40.4209,-22.8418 10.5262,-10.9416 15.7956,-21.994 17.5746,-36.8627 0.6281,-5.2494 0.8758,-683.3059 0.6991,-1913.6301 -0.2657,-1849.5952 -0.3279,-1905.6614 -2.12,-1911 -7.9161,-23.5807 -26.1001,-40.1915 -53.3571,-48.7409 l -8.7966,-2.7591 -1343.5,0 -1343.5,0 -8.7966,2.7591 c -27.6007,8.6572 -46.1754,25.7968 -53.3637,49.2409 -1.7835,5.8168 -1.8397,64.348 -1.8397,1917 l 0,1911 2.2053,7 c 4.583,14.5468 14.4931,27.2471 28.4208,36.4225 9.9496,6.5548 22.0426,11.3974 33.7682,13.5226 6.4408,1.1673 212.6172,1.3537 1346.1057,1.2167 l 1338.5,-0.1618 7.5791,-2.1654 z"
       id="path2996"
       inkscape:connector-curvature="0" />
    <rect
       style="color:#000000;fill:none;stroke:#ffffff;stroke-width:1.77165353;stroke-linecap:butt;stroke-linejoin:miter;stroke-miterlimit:4;stroke-opacity:1;stroke-dasharray:none;stroke-dashoffset:0;marker:none;visibility:visible;display:inline;overflow:visible;enable-background:accumulate"
       id="rect3017"
       width="3017.9575"
       height="1947.6354"
       x="-3360.1096"
       y="987.43616"
       transform="translate(-1808.5714,-2403.2808)" />
    <path
       style="color:#000000;fill:#ffffff;fill-opacity:1;fill-rule:nonzero;stroke:#ffffff;stroke-width:15.54295063;stroke-linecap:butt;stroke-linejoin:miter;stroke-miterlimit:4;stroke-opacity:1;stroke-dasharray:none;stroke-dashoffset:0;marker:none;visibility:visible;display:inline;overflow:visible;enable-background:accumulate"
       d="m 805.20407,5243.9889 c -61.98255,-17.3387 -119.22247,-91.5746 -118.80153,-154.0766 0.75668,-112.3499 126.41063,-190.0529 225.54838,-139.4766 143.38168,73.1479 102.44658,281.3504 -58.10151,295.5132 -17.41079,1.5359 -39.3012,0.6539 -48.64534,-1.96 z"
       id="path3021"
       inkscape:connector-curvature="0"
       transform="translate(-1808.5714,-2403.2808)" />
    <path
       style="color:#000000;fill:#ffffff;fill-opacity:1;fill-rule:nonzero;stroke:#ffffff;stroke-width:15.54295063;stroke-linecap:butt;stroke-linejoin:miter;stroke-miterlimit:4;stroke-opacity:1;stroke-dasharray:none;stroke-dashoffset:0;marker:none;visibility:visible;display:inline;overflow:visible;enable-background:accumulate"
       d="m 1525.1749,5339.8858 c -58.2619,-19.4078 -129.3883,-85.7954 -154.5269,-144.2316 -16.3833,-38.084 -19.0548,-57.0642 -15.7694,-112.0339 8.3094,-139.0278 100.4552,-234.3248 235.9836,-244.054 76.8893,-5.5196 134.654,13.9381 190.5367,64.1815 145.0101,130.3766 99.6928,365.2167 -83.7185,433.8397 -56.07,20.9785 -114.1066,21.7517 -172.5055,2.2983 z"
       id="path3023"
       inkscape:connector-curvature="0"
       transform="translate(-1808.5714,-2403.2808)" />
    <path
       style="color:#000000;fill:#ffffff;fill-opacity:1;fill-rule:nonzero;stroke:#ffffff;stroke-width:15.54295063;stroke-linecap:butt;stroke-linejoin:miter;stroke-miterlimit:4;stroke-opacity:1;stroke-dasharray:none;stroke-dashoffset:0;marker:none;visibility:visible;display:inline;overflow:visible;enable-background:accumulate"
       d="m 2293.269,5226.399 c -106.8187,-52.6382 -109.677,-210.6601 -4.9807,-275.3659 100.0553,-61.8376 231.5062,15.8484 231.5062,136.8176 0,22.2229 -4.4303,49.0286 -9.8451,59.5681 -14.5543,28.3289 -52.6724,67.2674 -79.6438,81.358 -31.684,16.5524 -101.0644,15.3486 -137.0366,-2.3778 z"
       id="path3025"
       inkscape:connector-curvature="0"
       transform="translate(-1808.5714,-2403.2808)" />
  </g>
</svg>
